<svg xmlns="http://www.w3.org/2000/svg" data-name="Слой 1" viewBox="0 0 128 160" x="0px" y="0px"><title>blood pressure, Pressure, Sphygmomanometer, Blood Pressure Meter, Sphygmometer</title><path d="M33.17,128C19.05,128,8,122.22,8,114.83s11.05-13.17,25.17-13.17c8.74,0,16.08,1.91,20.12,5.23L50.75,110c-3.24-2.67-10-4.32-17.58-4.32-12.47,0-21.17,4.83-21.17,9.17S20.69,124,33.17,124c7.07,0,13.26-1.47,17-4l2.27,3.29C48,126.31,41.15,128,33.17,128Z"/><path d="M58.24,124.33H53.81c-6.1,0-6.1-5.69-6.1-9.1s0-9.1,6.1-9.1h4.43a9.1,9.1,0,0,1,0,18.19Zm-4.43-14.19c-1.45,0-2.1.21-2.1,5.1s.64,5.1,2.1,5.1h4.43a5.1,5.1,0,0,0,0-10.19Z"/><path d="M93.75,117.24H65.33v-4H93.75c8.18,0,14.84-6.3,14.84-14V95.25h4v3.94C112.59,109.14,104.14,117.24,93.75,117.24Z"/><rect x="93" y="10.08" width="4" height="15.42"/><path d="M97,10.08C97,.28,53.46,0,48.5,0,40.22,0,32.19.38,25.13,1.08A7.44,7.44,0,0,0,21.28,0a7.56,7.56,0,0,0-7.55,7.55V9.68C1.59,12,0,14.85,0,17.08V65.62c0,8.94,24.4,13.62,48.5,13.62A156,156,0,0,0,69,78l.36-4A165.87,165.87,0,0,1,48.5,75.24C19.28,75.24,4,69,4,65.62c0-1.64,3.67-4,10.82-5.94a7.54,7.54,0,0,0,13.89-2.59A167.65,167.65,0,0,1,48.5,56a166,166,0,0,1,20.82,1.24l-.11-4A160,160,0,0,0,48.5,52a151.77,151.77,0,0,0-30.77,2.87V51.81a144.71,144.71,0,0,1,30.77-3A165.94,165.94,0,0,1,69.32,50.1l-.15-4A159.33,159.33,0,0,0,48.5,44.86a151,151,0,0,0-30.77,2.87V7.55A3.51,3.51,0,0,1,18.1,6,209.78,209.78,0,0,1,48.5,4C76,4,91.86,8,93,10.27a.45.45,0,0,1,0-.19ZM21.28,59.33a3.52,3.52,0,0,1-2.1-.7q2.36-.5,5.07-.93A3.55,3.55,0,0,1,21.28,59.33ZM4,59.85V17.22c.22-.28,1.76-1.86,9.73-3.46v42s0,0,0,.07A35.21,35.21,0,0,0,4,59.85Z"/><path d="M116,97.25H77.57a12,12,0,0,1-12-12V35.5a12,12,0,0,1,12-12H116a12,12,0,0,1,12,12V85.25A12,12,0,0,1,116,97.25ZM77.57,27.5a8,8,0,0,0-8,8V85.25a8,8,0,0,0,8,8H116a8,8,0,0,0,8-8V35.5a8,8,0,0,0-8-8Z"/><path d="M117.18,66H75.85V34.94h41.33ZM79.85,62h33.33V38.94H79.85Z"/><path d="M108.59,86.73a8.59,8.59,0,1,1,8.59-8.59A8.6,8.6,0,0,1,108.59,86.73Zm0-13.18a4.59,4.59,0,1,0,4.59,4.59A4.59,4.59,0,0,0,108.59,73.55Z"/><path d="M98.19,59.52A2,2,0,0,1,96.25,58L93.71,48,90,53.76a2,2,0,0,1-2.71.64l-.92-.55H83.58A2,2,0,0,1,82,53.13a2.78,2.78,0,0,0-1.18-.18,2.89,2.89,0,0,0-1.66.36.49.49,0,0,0,.1-.1l-2.92-2.73a7.24,7.24,0,0,1,7.95-.64H86.9a2,2,0,0,1,.75.15l5.19-8.07a2,2,0,0,1,3.62.59L99.36,54l4.51-3.69a2,2,0,0,1,1.27-.45h2.62c.9-.67,2.53-1.33,5.43-1.33a3.89,3.89,0,0,1,3.35,1.2A2.3,2.3,0,0,1,117,51a2,2,0,0,1-1.81,2.85,2.25,2.25,0,0,1-1.9-.9,2.11,2.11,0,0,1-.24-.43,5.47,5.47,0,0,0-2.89.54,2,2,0,0,1-1.59.79h-2.71l-6.4,5.23A2,2,0,0,1,98.19,59.52Zm-16.1-6.37Zm-.23-.29h0Zm0,0h0Zm0,0h0Zm0,0h0Zm0,0h0Zm28.46,0h0Zm0,0h0Zm0,0h0Z"/><text x="0" y="143" fill="#000000" font-size="5px" font-weight="bold" font-family="'Helvetica Neue', Helvetica, Arial-Unicode, Arial, Sans-serif">Created by LAFS</text><text x="0" y="148" fill="#000000" font-size="5px" font-weight="bold" font-family="'Helvetica Neue', Helvetica, Arial-Unicode, Arial, Sans-serif">from the Noun Project</text></svg>