<svg xmlns="http://www.w3.org/2000/svg" xmlns:xlink="http://www.w3.org/1999/xlink" xml:space="preserve" version="1.1" style="shape-rendering:geometricPrecision;text-rendering:geometricPrecision;image-rendering:optimizeQuality;" viewBox="0 0 2.462 3.0775" x="0px" y="0px" fill-rule="evenodd" clip-rule="evenodd"><defs><style type="text/css">
   
    .fil0 {fill:#984ea3}
   
  </style></defs><g><path class="fil0" d="M0.643 1.82c-0.076,-0.076 -0.134,-0.163 -0.175,-0.255 -0.084,-0.011 -0.177,-0.003 -0.262,0.019 -0.08,0.021 -0.153,0.054 -0.206,0.097 0.039,0.043 0.095,0.049 0.149,0.055 0.06,0.007 0.119,0.013 0.165,0.059 0.056,0.055 0.042,0.106 0.026,0.162 -0.012,0.043 -0.025,0.09 0.025,0.14 0.05,0.05 0.097,0.037 0.14,0.025 0.056,-0.015 0.108,-0.03 0.162,0.026 0.046,0.047 0.053,0.105 0.059,0.166 0.006,0.054 0.012,0.109 0.056,0.148 0.043,-0.052 0.076,-0.125 0.096,-0.206 0.022,-0.085 0.03,-0.178 0.019,-0.262 -0.092,-0.041 -0.179,-0.099 -0.254,-0.174zm1.177 -1.177c0.075,0.075 0.134,0.162 0.174,0.254 0.084,0.011 0.177,0.003 0.262,-0.019 0.081,-0.02 0.154,-0.053 0.206,-0.096 -0.039,-0.044 -0.094,-0.05 -0.148,-0.056 -0.061,-0.006 -0.119,-0.013 -0.166,-0.059 -0.056,-0.054 -0.041,-0.106 -0.026,-0.162 0.012,-0.043 0.025,-0.09 -0.025,-0.14 -0.05,-0.05 -0.097,-0.037 -0.14,-0.025 -0.056,0.016 -0.107,0.03 -0.162,-0.026 -0.046,-0.046 -0.052,-0.105 -0.059,-0.165 -0.006,-0.054 -0.012,-0.11 -0.055,-0.149 -0.043,0.053 -0.076,0.126 -0.097,0.206 -0.022,0.085 -0.03,0.178 -0.019,0.262 0.092,0.041 0.179,0.099 0.255,0.175zm-0.638 -0.168l0.679 1.177c0.086,-0.127 0.128,-0.274 0.128,-0.421 0,-0.194 -0.074,-0.388 -0.222,-0.536 -0.148,-0.148 -0.342,-0.222 -0.536,-0.222 -0.016,0 -0.033,0.001 -0.049,0.002zm-0.533 0.271l0.712 1.232c0.149,-0.026 0.291,-0.096 0.406,-0.211 0.016,-0.016 0.032,-0.033 0.046,-0.05l-0.712 -1.233c-0.148,0.026 -0.291,0.096 -0.406,0.211 -0.016,0.017 -0.031,0.033 -0.046,0.051zm-0.176 0.485c0,0.194 0.074,0.388 0.222,0.536 0.148,0.148 0.342,0.222 0.536,0.222 0.017,0 0.033,-0.001 0.05,-0.002l-0.68 -1.177c-0.085,0.127 -0.128,0.274 -0.128,0.421z"/></g><text x="0" y="17.462" fill="#000000" font-size="5px" font-weight="bold" font-family="'Helvetica Neue', Helvetica, Arial-Unicode, Arial, Sans-serif">Created by Deemak Daksina</text><text x="0" y="22.462" fill="#000000" font-size="5px" font-weight="bold" font-family="'Helvetica Neue', Helvetica, Arial-Unicode, Arial, Sans-serif">from the Noun Project</text></svg>