<svg id="Layer_1" data-name="Layer 1" xmlns="http://www.w3.org/2000/svg" viewBox="0 0 207.68 237.18"><defs><style>.cls-1{fill:#00c0ff;}</style></defs><title>cho</title><path class="cls-1" d="M8.57,146.43l.48,0A8,8,0,0,0,16.57,138c-.39-6.65-.57-12.71-.57-18.22,0-24.23,3.5-37.83,7-44.93v150a12.36,12.36,0,0,0,24.72,0V134.55h4.64v90.27a12.37,12.37,0,0,0,24.73,0v-148l-8.7,1.37A53.57,53.57,0,0,1,63.44,90C34.12,87.57,41.57,73.9,46,71.51a6.85,6.85,0,0,1,7.57.26,6.85,6.85,0,0,1,3.91-6.49c2.89-1.57,10.6-1.59,11.57,6l20.11-7.6c-.18-.29-.36-.58-.54-.85a28.19,28.19,0,0,0-10.68-10,19,19,0,0,0-8.26-2.13l-.31,0H30.69l-.33,0a19.06,19.06,0,0,0-8.25,2.13c-5.38,2.67-11.18,8.5-15.23,18.84S0,97.08,0,119.74c0,5.85.19,12.22.6,19.16A8,8,0,0,0,8.57,146.43Z"/><path class="cls-1" d="M78.84,79.1C81.65,86.91,84,99.73,84,119.74c0,5.51-.18,11.57-.57,18.22A8,8,0,0,0,91,146.41l.47,0a8,8,0,0,0,8-7.54c.4-6.93.59-13.3.59-19.15,0-20.94-2.36-35.39-6-45.63L77.87,76.65C78.19,77.4,78.52,78.21,78.84,79.1Z"/><circle class="cls-1" cx="50.01" cy="22.5" r="22.5"/><path class="cls-1" d="M128.19,51l-71,26.85L131.4,66.22c.27.64.56,1.26.87,1.88a39.76,39.76,0,1,0-4.05-19.23c0,.55,0,1.11,0,1.67C128.18,50.7,128.19,50.86,128.19,51ZM167,20.62a31.5,31.5,0,1,1-31.5,31.5A31.53,31.53,0,0,1,167,20.62Z"/><circle class="cls-1" cx="168.51" cy="76.87" r="5.75"/><circle class="cls-1" cx="155.68" cy="73.21" r="5.75"/><circle class="cls-1" cx="180.84" cy="73.62" r="4.92"/><circle class="cls-1" cx="176.34" cy="62.62" r="4.92"/><circle class="cls-1" cx="191.51" cy="52.62" r="5.25"/><circle class="cls-1" cx="188.01" cy="64.96" r="4.92"/><circle class="cls-1" cx="183.01" cy="55.96" r="2.67"/><circle class="cls-1" cx="167.84" cy="66.29" r="2.67"/><circle class="cls-1" cx="160.68" cy="64.12" r="2.67"/><circle class="cls-1" cx="146.51" cy="68.96" r="2.67"/><circle class="cls-1" cx="192.18" cy="42.62" r="2.67"/></svg>