<svg id="Layer_1" data-name="Layer 1" xmlns="http://www.w3.org/2000/svg" viewBox="0 0 64 64"><title>down</title><path d="M32,64A32,32,0,1,1,64,32,32,32,0,0,1,32,64ZM32,3A29,29,0,1,0,61,32,29,29,0,0,0,32,3Z"/><path d="M23.73,34.69l7.06,8.47a1.27,1.27,0,0,0,.25.27,1.52,1.52,0,0,0,.82.34h.28a1.59,1.59,0,0,0,.83-.34,2,2,0,0,0,.24-.26l7.06-8.48A1.5,1.5,0,1,0,38,32.77l-6,7.16-6-7.16a1.5,1.5,0,0,0-2.3,1.92Z"/><path d="M23.73,22.69l7.06,8.47a1.27,1.27,0,0,0,.25.27,1.52,1.52,0,0,0,.82.34h.28a1.59,1.59,0,0,0,.83-.34,2,2,0,0,0,.24-.26l7.06-8.48A1.5,1.5,0,0,0,38,20.77l-6,7.16-6-7.16a1.5,1.5,0,1,0-2.3,1.92Z"/></svg>