<?xml version="1.0" encoding="utf-8"?>
<!-- Generator: Adobe Illustrator 22.1.0, SVG Export Plug-In . SVG Version: 6.00 Build 0)  -->
<svg version="1.1" id="Layer_1" xmlns="http://www.w3.org/2000/svg" xmlns:xlink="http://www.w3.org/1999/xlink" x="0px" y="0px"
	 viewBox="0 0 64 64" style="enable-background:new 0 0 64 64;" xml:space="preserve">
<style type="text/css">
	.st0{fill:#2B4388;}
</style>
<path class="st0" d="M32,64C14.4,64,0,49.6,0,32S14.4,0,32,0s32,14.4,32,32S49.6,64,32,64z M32,3C16,3,3,16,3,32c0,16,13,29,29,29
	c16,0,29-13,29-29C61,16,48,3,32,3z"/>
<path class="st0" d="M23.7,34.7l7.1,8.5c0.1,0.1,0.1,0.2,0.2,0.3c0.2,0.2,0.5,0.3,0.8,0.3c0,0,0.1,0,0.1,0s0.1,0,0.1,0
	c0.3,0,0.6-0.1,0.8-0.3c0.1-0.1,0.2-0.2,0.2-0.3l7.1-8.5c0.5-0.6,0.4-1.6-0.2-2.1c-0.6-0.5-1.6-0.4-2.1,0.2l-6,7.2l-6-7.2
	c-0.5-0.6-1.5-0.7-2.1-0.2C23.3,33.1,23.2,34.1,23.7,34.7z"/>
<path class="st0" d="M23.7,22.7l7.1,8.5c0.1,0.1,0.1,0.2,0.2,0.3c0.2,0.2,0.5,0.3,0.8,0.3c0,0,0.1,0,0.1,0s0.1,0,0.1,0
	c0.3,0,0.6-0.1,0.8-0.3c0.1-0.1,0.2-0.2,0.2-0.3l7.1-8.5c0.5-0.6,0.4-1.6-0.2-2.1c-0.6-0.5-1.6-0.4-2.1,0.2l-6,7.2l-6-7.2
	c-0.5-0.6-1.5-0.7-2.1-0.2C23.3,21.1,23.2,22.1,23.7,22.7z"/>
</svg>
