<svg xmlns="http://www.w3.org/2000/svg" xmlns:xlink="http://www.w3.org/1999/xlink" version="1.1" x="0px" y="0px" viewBox="0 0 228.482 271.37" style="enable-background:new 0 0 228.482 217.096;" xml:space="preserve"><g fill="#377eb8"><circle cx="88.04" cy="22.5" r="22.5"/><path d="M10.806,78.969C7.204,79.656,3.601,80.342,0,81.029c8.422,44.146,8.662,89.447,0.773,133.666h11.174   c0.806-4.654,1.503-9.324,2.133-14H55v14h11v-38.666h2.334v-11H17.2C18.346,136.254,16.226,107.379,10.806,78.969z M55,176.029   v18.666H14.841c0.737-6.211,1.319-12.434,1.749-18.666H55z"/><path d="M114.91,126.533c0.166-1.666,0.25-3.355,0.25-5.057c0-1.237-0.096-2.507-0.273-3.798   c8.864,1.157,17.222,1.293,24.392,5.212c13.121,7.17,24.776,81.953,10.787,87.127c-15.657,5.793-13-1.875-19.663,7.078   c3.942,0,55.892,0,59.834,0c-6.663-8.953-4.006-1.285-19.663-7.078c-13.989-5.174-2.334-79.957,10.787-87.127   c13.121-7.172,30.213-1.664,47.122-12.961c-5.965,0-78.592,0-115.489,0c-2.189-6.48-5.754-13.071-9.358-18.788   c-6.522,1.918-12.752,2.724-18.433,2.311c-14.077-0.985-25.028-3.658-29.323-7.149c-3.654-2.646-5.774-7.894-5.401-13.4   c0.203-2.996,1.122-5.656,2.66-7.695c4.387-5.812,12.873-7.113,18.913-2.9l0.02,0.012l0.072,0.042   c2.67,1.742,10.523,6.324,14.727,6.605c1.481,0.09,2.96,0.1,4.438,0.037C87.651,58.635,79.939,50.929,64.493,50.15   c-42.856-2.16-43.061,65.141-42.977,84.512c0.045,10.353,5.829,16.035,12.991,19.016c2.736,2.187,6.2,3.502,9.976,3.502v-0.002   h45.682l-5.539,40.852c-1.187,8.755,4.949,16.817,13.706,18.005c0.729,0.099,1.455,0.147,2.17,0.147   c7.882,0,14.746-5.825,15.834-13.851l8-59.001c0.621-4.59-0.759-9.19-3.805-12.678C118.962,128.856,117.037,127.467,114.91,126.533   z"/><path d="M117.376,40.334l37.836,18.233c2.173-4.512,0.709-9.723-3.271-11.641L128.519,35.64   C124.538,33.722,119.55,35.823,117.376,40.334z"/><path d="M141.899,64.649v0.003c-0.189,2.767-1.423,5.352-3.416,7.24l1.156,0.558c3.98,1.918,8.968-0.184,11.143-4.695l-8.873-4.276   C141.926,63.868,141.926,64.258,141.899,64.649z"/><path d="M124.423,55.052l-11.475-5.53c-2.11,4.377-0.787,9.404,2.93,11.452c2.728-1.652,5.475-3.545,8.249-5.713   C124.223,55.186,124.325,55.124,124.423,55.052z"/><path d="M139.569,57.105c0.861,1.096,1.495,2.332,1.888,3.64l10.611,5.113c1.243,0.6,2.802-0.057,3.482-1.467   c0.679-1.409,0.223-3.037-1.022-3.638l-38.736-18.668c-1.245-0.6-2.803,0.058-3.483,1.468c-0.679,1.41-0.222,3.037,1.022,3.638   l13.51,6.51C131.252,51.94,136.484,53.188,139.569,57.105z"/><polygon points="196.878,106.096 200.378,76.471 180.378,76.471 183.878,106.096  "/><polygon points="187.058,69.596 178.753,69.596 178.753,74.846 202.003,74.846 202.003,69.596 190.143,69.596 188.155,61.248    177.506,52.676 175.625,55.014 175.623,55.014 185.474,62.941  "/><polygon points="154.52,87.211 152.492,88.518 156.581,94.859 154.586,94.859 147.461,86.293 145.606,87.834 151.448,94.859    150.953,94.859 140.823,87.91 139.459,89.9 146.689,94.859 142.005,94.859 137.218,89.883 135.479,91.557 138.657,94.859    135.853,94.859 142.838,106.492 165.818,106.492 172.803,94.859 168.674,94.859 173.518,89.543 171.735,87.918 165.41,94.859    164.632,94.859 167.456,87.92 165.222,87.01 162.027,94.859 160.929,94.859 162.732,87.334 160.386,86.773 158.721,93.725  "/><path d="M71.051,64.039c-0.068-0.043-0.113-0.072-0.132-0.087c-0.006-0.004-0.007-0.006-0.009-0.006l-0.001,0.001   c-5.188-3.618-12.407-2.525-16.174,2.465c-3.786,5.021-2.82,14.617,2.377,18.31h-0.003c3.038,2.502,12.135,5.608,28.24,6.734   c13.747,1,32.087-5.387,51.144-20.475c2.083-1.64,3.246-4.015,3.413-6.467c0.145-2.145-0.473-4.349-1.907-6.171   c-3.073-3.905-8.732-4.581-12.638-1.507C109.272,69.41,96.325,71.543,86.735,70.963C81.128,70.586,71.218,64.148,71.051,64.039z"/></g></svg>