<svg id="Layer_1" data-name="Layer 1" xmlns="http://www.w3.org/2000/svg" viewBox="0 0 96 88.31"><defs><style>.cls-1{fill:#2b4388;}</style></defs><title>heart</title><path class="cls-1" d="M48.06,92.16a2,2,0,0,1-1.48-.67l-40-44.25A1.78,1.78,0,0,1,6.36,47,26.07,26.07,0,1,1,48,15.8,26.07,26.07,0,1,1,89.63,47a2.56,2.56,0,0,1-.2.26L49.55,91.49a2,2,0,0,1-1.49.67ZM9.76,44.82l38.3,42.35L86.24,44.81a1.24,1.24,0,0,1,.17-.23A22.07,22.07,0,1,0,49.82,20.79a2.09,2.09,0,0,1-3.64,0A22.08,22.08,0,1,0,9.58,44.58,1.88,1.88,0,0,1,9.76,44.82Z" transform="translate(0 -3.84)"/><path class="cls-1" d="M50.06,75.91l-.27,0a2,2,0,0,1-1.69-1.61L41.52,38.79,36.16,58.44a2,2,0,0,1-1.93,1.47H8.06a2,2,0,0,1,0-4H32.7L40,29.3a1.92,1.92,0,0,1,2-1.47,2,2,0,0,1,1.88,1.64l7.07,38.17L56.18,57A2,2,0,0,1,58,55.92H88.06a2,2,0,0,1,0,4H59.21L51.84,74.8A2,2,0,0,1,50.06,75.91Z" transform="translate(0 -3.84)"/></svg>