<svg xmlns="http://www.w3.org/2000/svg" xmlns:xlink="http://www.w3.org/1999/xlink" version="1.1" x="0px" y="0px" viewBox="0 0 202.998 256.24625000000003" style="enable-background:new 0 0 202.998 204.997;" xml:space="preserve"><g fill="#4daf4a"><path d="M125.938,147.174c-0.191-0.48-0.268-0.566-0.438-0.75c-0.193-0.197-1.283-0.928-3.475-1.367   c-1.33-0.275-3-0.434-4.596-0.434h-0.111c-1.453,0-2.525,0.119-2.727,0.145c-2.311,0.357-7.164,0.569-13.02,0.569   c-4.51,0-10.283-0.148-12.973-0.563c-0.02-0.005-0.182-0.023-0.42-0.043c-0.447-0.043-1.322-0.109-2.422-0.109   c-1.887,0-3.789,0.205-5.184,0.55c-1.598,0.374-2.543,0.907-2.82,1.136c-0.232,0.191-0.262,0.223-0.412,0.487   c-0.457,0.884-0.711,2.423-0.725,4.517c-0.002,0.346,0.006,0.776,0.031,1.271h49.814c0.025-0.491,0.033-0.918,0.029-1.261   C126.492,149.572,126.301,148.145,125.938,147.174z"/><path d="M164.492,151.309c-0.002,0.422-0.018,0.85-0.027,1.275h13.65c0.483,0,0.881,0.398,0.881,0.883v51.531h24.002v-51.531   c-0.008-13.746-11.137-24.876-24.883-24.883h-18.994c0.012,0.024,0.027,0.046,0.039,0.07   C162.67,135.096,164.516,142.932,164.492,151.309z"/><path d="M23.998,153.467c0-0.484,0.4-0.883,0.885-0.883h13.764c-0.01-0.425-0.025-0.852-0.027-1.273   c-0.004-6.342,1-12.225,2.982-17.492c0.672-1.802,1.482-3.551,2.402-5.234H24.883C11.135,128.591,0.006,139.721,0,153.467v51.531   h23.998V153.467z"/><path d="M49.279,60.619c-3.633,6.327-6.066,14.211-6.051,23.251c0.008,12.75,4.66,27.431,15.719,44.376   c1.725,2.646,4.605,4.084,7.545,4.084c1.686,0,3.391-0.473,4.908-1.463c4.166-2.715,5.338-8.291,2.623-12.455   c-9.76-14.967-12.803-26.287-12.795-34.542c0.016-5.899,1.475-10.429,3.68-14.319c1.33-2.347,3-4.438,4.813-6.294l0.266,0.574   c-0.074,0.132-0.158,0.289-0.236,0.434c0.096-0.068,0.199-0.134,0.301-0.201c-0.143,0.137-0.279,0.281-0.42,0.42   c-2.389,4.497-6.389,14.627-6.402,19.392c-0.01,9.487,4.188,20.741,12.471,33.446c3.313,5.08,1.875,11.908-3.205,15.22   c-1.795,1.171-3.869,1.788-6.002,1.788c-3.736,0-7.185-1.867-9.221-4.992c-1.85-2.833-3.529-5.634-5.061-8.405   c-0.133,0.131-0.27,0.254-0.4,0.388c-3.469,3.536-6.424,8.065-8.338,13.201c-1.934,5.139-2.857,10.802-2.854,16.778   c0.051,12.375,3.689,26.156,11.4,43.224c2.846,6.269,9.024,9.975,15.488,9.976c2.35,0,4.738-0.49,7.018-1.525   c8.549-3.883,12.334-13.959,8.451-22.508c-6.518-14.269-8.41-23.968-8.359-29.167c0.02-3.4,0.639-4.824,0.982-5.486   c0.285-0.506,0.48-0.717,0.883-1.049c0.57-0.471,1.822-1.115,3.613-1.535c1.76-0.434,3.924-0.613,5.664-0.607   c1.094,0,2.016,0.061,2.584,0.115c0.283,0.025,0.477,0.049,0.561,0.059c0,0,0.002,0,0.002,0.001   c1.387,0.214,3.795,0.364,6.611,0.451c1.986,0.277,4,0.429,6.029,0.429c2.023,0,4.031-0.151,6.012-0.426   c2.848-0.087,5.287-0.239,6.689-0.459c0.027-0.003,0.061-0.007,0.105-0.012c0.428-0.051,1.568-0.16,3.004-0.158   c1.545-0.004,3.426,0.133,5.063,0.473c2.543,0.508,4.074,1.425,4.555,1.976c0.287,0.312,0.512,0.576,0.836,1.401   c0.307,0.823,0.682,2.288,0.684,4.829c0.051,5.197-1.84,14.9-8.354,29.168c-3.881,8.551-0.096,18.627,8.455,22.508   c2.279,1.033,4.664,1.521,7.014,1.523c6.467,0,12.646-3.709,15.492-9.98c7.703-17.066,11.342-30.845,11.393-43.218   c0.02-7.953-1.672-15.418-5.094-21.699c-1.791-3.319-4.041-6.229-6.51-8.683c-1.533,2.775-3.215,5.58-5.066,8.417   c-2.037,3.125-5.484,4.992-9.221,4.992c-2.133,0-4.209-0.617-6.002-1.788c-5.08-3.312-6.52-10.14-3.205-15.22   c8.283-12.705,12.479-23.959,12.471-33.446c-0.014-4.765-4.016-14.895-6.404-19.392c-0.141-0.14-0.277-0.283-0.418-0.42   c0.1,0.067,0.203,0.133,0.301,0.201c-0.08-0.145-0.162-0.303-0.236-0.434l0.264-0.574c1.814,1.857,3.482,3.948,4.813,6.294   c2.205,3.891,3.664,8.42,3.682,14.319c0.006,8.255-3.037,19.575-12.795,34.542c-2.715,4.164-1.543,9.74,2.621,12.455   c1.518,0.99,3.223,1.463,4.91,1.463c2.939,0,5.82-1.438,7.545-4.084c11.057-16.945,15.709-31.626,15.719-44.376   c0.014-9.04-2.418-16.924-6.051-23.251c-3.533-6.171-8.102-10.892-12.563-14.48c-0.125-0.101-0.25-0.21-0.375-0.309   c-7.018-5.516-13.719-8.369-16.777-9.509c-0.563-0.341-1.168-0.615-1.813-0.805c-4.342,6.891-12.012,11.481-20.74,11.481   c-8.729,0-16.4-4.591-20.742-11.481c-0.643,0.189-1.248,0.462-1.809,0.802c-3.057,1.139-9.762,3.992-16.781,9.511   c-0.125,0.099-0.252,0.208-0.377,0.309C57.379,49.727,52.813,54.448,49.279,60.619z"/><circle cx="101.547" cy="22.5" r="22.5"/></g></svg>