<svg xmlns="http://www.w3.org/2000/svg" viewBox="0 0 54 85" x="0px" y="0px"><g fill="#ff7f00" fill-rule="evenodd"><path d="M15.3040147,67.0599979 C15.6694914,67.6447606 16.3104312,68 17.0000113,68 L45.0000113,68 C45.8296155,68 46.5730923,67.4878371 46.868719,66.7126932 C46.9066932,66.6131233 46.9742846,66.4312959 47.0672697,66.1739239 C47.2201094,65.7508815 47.3898441,65.2658414 47.572251,64.7254892 C48.0919346,63.1860065 48.6111291,61.5066231 49.0960131,59.7402075 C49.9186062,56.7435295 50.557294,53.8064377 50.9405568,51.0331586 C51.6913862,45.6001774 51.4264688,41.1879011 49.766377,38.0619424 C47.9152161,34.5761998 44.3353932,32.5778098 38.0000113,30.5559494 L38.0000113,26 L28.0000113,26 L28.0000113,28.0057181 C28.0000113,28.5524802 27.5512888,29 27.0000113,29 C26.4486384,29 26.0000113,28.5522286 26.0000113,28.0092478 L26.0000113,8.50001596 C26.0000113,6.01405245 23.9753758,4 21.4902361,4 L20.5097864,4 C18.0193993,4 16.0000113,6.00747214 16.0000113,8.4996341 L16.0000113,45.9200134 L13.3416497,42.2656751 C9.98549628,37.6891022 4.02647403,36.4441448 0.463568709,40.7196312 C-0.089564251,41.3833908 -0.153915715,42.3273093 0.304014661,43.0599979 L15.3040147,67.0599979 Z"/><path d="M38.0000113 11L38.0000113 4.50618324C38.0000113 2.01792576 35.976474 0 33.4902361 0L32.5097864 0C30.0214618 0 28.0000113 2.01213085 28.0000113 4.49762326L28.0000113 11 38.0000113 11zM50 17L50 20 29.0024617 20C28.4488174 20 28 20.4433532 28 21.0093689L28 22.9906311C28 23.5480902 28.4474692 24 29.0006946 24L52 24C53.1045695 24 54 23.1045695 54 22L54 15C54 13.8954305 53.1045695 13 52 13L29.0006946 13C28.4480262 13 28 13.4433532 28 14.0093689L28 15.9906311C28 16.5480902 28.4394583 17 29.0024617 17L50 17zM8 20L8 17 13.009222 17C13.5564136 17 14 16.5566468 14 15.9906311L14 14.0093689C14 13.4519098 13.5469637 13 13.0029699 13L6 13C4.8954305 13 4 13.8954305 4 15L4 22C4 23.1045695 4.8954305 24 6 24L13.0029699 24C13.5536144 24 14 23.5566468 14 22.9906311L14 21.0093689C14 20.4519098 13.5490248 20 13.009222 20L8 20zM50 9.00460243C50 9.55434533 50.4433532 10 51.0093689 10L52.9906311 10C53.5480902 10 54 9.5443356 54 9.00460243L54 .995397568C54 .445654671 53.5566468.61852778e-14 52.9906311.61852778e-14L51.0093689.61852778e-14C50.4519098.61852778e-14 50 .455664396 50 .995397568L50 9.00460243zM44 9.00922203C44 9.55641359 44.4433532 10 45.0093689 10L46.9906311 10C47.5480902 10 48 9.54902482 48 9.00922203L48 4.99077797C48 4.44358641 47.5566468 4 46.9906311 4L45.0093689 4C44.4519098 4 44 4.45097518 44 4.99077797L44 9.00922203z"/></g></svg>