<svg xmlns="http://www.w3.org/2000/svg" data-name="Layer 1" viewBox="0 0 100 125" x="0px" y="0px"><title>Artboard 108</title><path d="M68.73,58.57H9.94a2,2,0,0,0-2,2V75a2,2,0,0,0,2,2h58.8a2,2,0,0,0,2-2V60.57A2,2,0,0,0,68.73,58.57ZM66.73,73H11.94V62.57h54.8ZM81.27,60.19V75.35a2,2,0,0,1-4,0V60.19a2,2,0,1,1,4,0Zm10.64,0V75.35a2,2,0,0,1-4,0V60.19a2,2,0,1,1,4,0ZM74.79,42.53v4.93a2,2,0,0,1-4,0V42.53A3.55,3.55,0,0,0,67.24,39a7.56,7.56,0,0,1-7.55-7.55V24.65a2,2,0,1,1,4,0v6.78A3.55,3.55,0,0,0,67.24,35,7.56,7.56,0,0,1,74.79,42.53Zm17.27,0v4.93a2,2,0,0,1-4,0V42.53A3.55,3.55,0,0,0,84.51,39,7.56,7.56,0,0,1,77,31.43V24.65a2,2,0,1,1,4,0v6.78A3.55,3.55,0,0,0,84.51,35,7.56,7.56,0,0,1,92.06,42.53Z"/><text x="0" y="115" fill="#000000" font-size="5px" font-weight="bold" font-family="'Helvetica Neue', Helvetica, Arial-Unicode, Arial, Sans-serif">Created by Hare Krishna</text><text x="0" y="120" fill="#000000" font-size="5px" font-weight="bold" font-family="'Helvetica Neue', Helvetica, Arial-Unicode, Arial, Sans-serif">from the Noun Project</text></svg>