<svg xmlns="http://www.w3.org/2000/svg" xmlns:xlink="http://www.w3.org/1999/xlink" version="1.1" x="0px" y="0px" viewBox="0 0 100 125" style="enable-background:new 0 0 100 100;" xml:space="preserve"><style type="text/css">
	.st0{fill:none;stroke:#000000;stroke-width:2;stroke-miterlimit:10;}
	.st1{fill:none;stroke:#000000;stroke-width:2;stroke-linecap:round;stroke-miterlimit:10;}
	.st2{fill:none;stroke:#000000;stroke-width:2;stroke-linecap:round;stroke-linejoin:round;stroke-miterlimit:10;}
</style><g><g><path d="M61.9938965,58.0064087c-5.1245117,0-10.2485352-1.9501953-14.1494141-5.8515625    c-3.7797852-3.7792969-5.8613281-8.8046875-5.8613281-14.1494141s2.081543-10.3701172,5.8613281-14.1494141    c7.8017578-7.8027344,20.496582-7.8017578,28.2983398,0c7.8022461,7.8017578,7.8022461,20.4970703,0,28.2988281    C72.2419434,56.0562134,67.1179199,58.0064087,61.9938965,58.0064087z M61.9938965,20.003479    c-4.6123047,0-9.2241211,1.7558594-12.7353516,5.2666016c-3.4018555,3.4013672-5.2753906,7.9248047-5.2753906,12.7353516    s1.8735352,9.3339844,5.2753906,12.7353516c7.0219727,7.0205078,18.4472656,7.0224609,25.4702148,0    c7.0219727-7.0224609,7.0219727-18.4482422,0-25.4707031C71.2175293,21.7593384,66.6057129,20.003479,61.9938965,20.003479z"/></g><g><path d="M69.6706543,41.7349243c-4.1079102,0-7.1254883-2.015625-8.2988281-2.9462891l1.2431641-1.5664063    c1.0957031,0.8681641,4.0761719,2.8427734,8.0742188,2.4638672c5.9594727-0.5742188,8.8671875-5.9912109,8.9882813-6.2216797    l1.7705078,0.9296875c-0.3540039,0.6748047-3.6616211,6.6181641-10.5673828,7.2822266    C70.4680176,41.7163696,70.064209,41.7349243,69.6706543,41.7349243z"/></g><g><path d="M62.107666,38.9985962l-0.2285156-1.9863281c1.3881836-0.1601563,4.8935547-0.8662109,7.4516602-3.9677734    c3.8071289-4.6171875,2.0336914-10.5058594,1.956543-10.7548828l1.9091797-0.59375    c0.2270508,0.7275391,2.0888672,7.2705078-2.3227539,12.6210938    C67.8522949,37.9800415,63.7370605,38.8120728,62.107666,38.9985962z"/></g><g><path d="M62.7766113,38.6275024l-1.5664063-1.2441406c0.8686523-1.0947266,2.8481445-4.0732422,2.4633789-8.0742188    c-0.5727539-5.9560547-5.9907227-8.8671875-6.2207031-8.9873047l0.9296875-1.7714844    c0.6757813,0.3554688,6.6181641,3.6660156,7.2822266,10.5673828    C66.1188965,33.8433228,63.7961426,37.3423462,62.7766113,38.6275024z"/></g><g><path d="M61.0002441,38.1196899c-0.1606445-1.3886719-0.8681641-4.8955078-3.9677734-7.4511719    c-4.6171875-3.8085938-10.5063477-2.0341797-10.7539063-1.9560547l-0.5947266-1.9101563    c0.7285156-0.2275391,7.2709961-2.0869141,12.6210938,2.3232422c3.6606445,3.0175781,4.4936523,7.1347656,4.6816406,8.765625    L61.0002441,38.1196899z"/></g><g><path d="M44.3098145,42.5464478l-1.7705078-0.9316406c0.3554688-0.6748047,3.6694336-6.6171875,10.5668945-7.2802734    c4.7294922-0.4550781,8.2236328,1.8681641,9.5087891,2.8876953l-1.2431641,1.5664063    c-1.0952148-0.8681641-4.0688477-2.8457031-8.0742188-2.4638672    C47.3449707,36.8970337,44.4309082,42.315979,44.3098145,42.5464478z"/></g><g><path d="M50.7907715,54.3150024c-0.2270508-0.7275391-2.09375-7.2646484,2.3227539-12.6210938    c3.0209961-3.6630859,7.1362305-4.4951172,8.765625-4.6816406l0.2285156,1.9863281    c-1.3881836,0.1601563-4.8935547,0.8662109-7.4511719,3.9677734c-3.8110352,4.6220703-2.0341797,10.5048828-1.956543,10.7529297    L50.7907715,54.3150024z"/></g><g><path d="M65.604248,57.4605103c-0.6757813-0.3554688-6.6181641-3.6660156-7.2822266-10.5683594    c-0.4541016-4.7246094,1.8686523-8.2236328,2.8881836-9.5087891l1.5664063,1.2441406    c-0.8686523,1.0947266-2.8481445,4.0732422-2.4633789,8.0732422c0.5727539,5.9570313,5.9907227,8.8681641,6.2207031,8.9882813    L65.604248,57.4605103z"/></g><g><path d="M74.0944824,49.7905884c-2.4545898,0-5.5981445-0.5849609-8.4125977-2.9052734    c-3.6606445-3.0185547-4.4936523-7.1357422-4.6816406-8.765625l1.9863281-0.2285156    c0.1606445,1.3886719,0.8681641,4.8955078,3.9677734,7.4511719c4.6166992,3.8076172,10.5053711,2.0341797,10.7539063,1.9560547    l0.5947266,1.9101563C77.9577637,49.315979,76.3059082,49.7905884,74.0944824,49.7905884z"/></g><g><path d="M21.5461426,81.9956665c-0.9467773,0-1.8359375-0.3691406-2.5053711-1.0380859    c-1.3803711-1.3808594-1.3803711-3.6289063,0-5.0097656l27.1357422-27.1347656l1.4140625,1.4140625L20.4553223,77.3618774    c-0.6010742,0.6015625-0.6010742,1.5800781,0.0004883,2.1816406c0.5810547,0.5810547,1.597168,0.5820313,2.1801758,0    l27.1357422-27.1357422l1.4140625,1.4140625L24.0505371,80.9575806    C23.3815918,81.6265259,22.4924316,81.9956665,21.5461426,81.9956665z"/></g><g><rect x="20.6472168" y="74.7564087" width="7.1904297" height="2"/></g><g><rect x="25.1413574" y="70.2622681" width="7.1904297" height="2"/></g><g><rect x="29.635498" y="65.7681274" width="7.1904297" height="2"/></g><g><rect x="34.1296387" y="61.2739868" width="7.1904297" height="2"/></g><g><rect x="38.623291" y="56.7798462" width="7.190918" height="2"/></g><g><rect x="43.1174316" y="52.2857056" width="7.190918" height="2"/></g></g><text x="0" y="115" fill="#000000" font-size="5px" font-weight="bold" font-family="'Helvetica Neue', Helvetica, Arial-Unicode, Arial, Sans-serif">Created by Dinosoft Labs</text><text x="0" y="120" fill="#000000" font-size="5px" font-weight="bold" font-family="'Helvetica Neue', Helvetica, Arial-Unicode, Arial, Sans-serif">from the Noun Project</text></svg>